<svg xmlns="http://www.w3.org/2000/svg" width="20" height="20" viewBox="0 0 20 20" fill="none">
  <path d="M14.4117 10.5441C14.4007 9.09863 14.9808 7.99512 16.1519 7.16992C15.4893 6.22559 14.4775 5.70703 13.1348 5.60645C11.8691 5.50879 10.4834 6.35352 9.98438 6.35352C9.45508 6.35352 8.22266 5.6416 7.22461 5.6416C5.16016 5.67383 2.96875 7.20215 2.96875 10.7227C2.96875 11.7559 3.15234 12.8223 3.51953 13.9219C4.00977 15.3613 5.76172 18.75 7.5918 18.6934C8.52148 18.6699 9.18359 18.0459 10.3906 18.0459C11.5625 18.0459 12.1748 18.6934 13.2109 18.6934C15.0586 18.668 16.6416 15.5732 17.1055 14.1309C14.2646 12.7686 14.4117 10.627 14.4117 10.5441ZM12.0166 4.21387C12.9756 3.06738 12.8857 2.02148 12.8564 1.66602C12.0049 1.71484 11.0225 2.24805 10.4629 2.90039C9.84961 3.59863 9.49023 4.46289 9.56836 5.58984C10.4893 5.66016 11.3262 5.18457 12.0166 4.21387Z" fill="white"/>
</svg>
