<svg width="26" height="26" viewBox="0 0 26 26" fill="none" xmlns="http://www.w3.org/2000/svg">
<path d="M2.16602 9.21021C2.16604 8.00468 2.53174 6.82751 3.21483 5.83418C3.89791 4.84085 4.86624 4.07809 5.99193 3.64664C7.11761 3.21519 8.34769 3.13536 9.5197 3.41767C10.6917 3.69999 11.7505 4.33118 12.5563 5.22787C12.613 5.28856 12.6816 5.33693 12.7578 5.37001C12.8341 5.40308 12.9163 5.42015 12.9993 5.42015C13.0824 5.42015 13.1646 5.40308 13.2409 5.37001C13.3171 5.33693 13.3857 5.28856 13.4424 5.22787C14.2457 4.32535 15.3047 3.68886 16.4786 3.40311C17.6525 3.11736 18.8856 3.19592 20.0138 3.62831C21.142 4.06071 22.1117 4.82645 22.7939 5.8236C23.4761 6.82075 23.8384 8.00203 23.8327 9.21021C23.8327 11.691 22.2077 13.5435 20.5827 15.1685L14.633 20.9243C14.4312 21.1561 14.1823 21.3424 13.9029 21.4706C13.6235 21.5989 13.3201 21.6662 13.0127 21.6682C12.7053 21.6701 12.401 21.6066 12.12 21.4819C11.839 21.3572 11.5878 21.1741 11.383 20.9449L5.41602 15.1685C3.79102 13.5435 2.16602 11.7019 2.16602 9.21021Z" stroke="#8A8A8B" stroke-width="1.44643" stroke-linecap="round" stroke-linejoin="round"/>
</svg>
