<svg width="26" height="26" viewBox="0 0 26 26" fill="none" xmlns="http://www.w3.org/2000/svg">
<path d="M3.25 10.8352C3.24992 10.52 3.31861 10.2086 3.45127 9.92268C3.58393 9.63678 3.77736 9.38327 4.01808 9.17982L11.6014 2.67982C11.9925 2.34931 12.488 2.16797 13 2.16797C13.512 2.16797 14.0075 2.34931 14.3986 2.67982L21.9819 9.17982C22.2226 9.38327 22.4161 9.63678 22.5487 9.92268C22.6814 10.2086 22.7501 10.52 22.75 10.8352V20.5852C22.75 21.1598 22.5217 21.7109 22.1154 22.1172C21.7091 22.5235 21.158 22.7518 20.5833 22.7518H5.41667C4.84203 22.7518 4.29093 22.5235 3.8846 22.1172C3.47827 21.7109 3.25 21.1598 3.25 20.5852V10.8352Z" stroke="#8A8A8B" stroke-width="1.44643" stroke-linecap="round" stroke-linejoin="round"/>
</svg>
