<svg width="26" height="26" viewBox="0 0 26 26" fill="none" xmlns="http://www.w3.org/2000/svg">
<path d="M21.501 20.825C21.501 18.9154 20.5528 17.0841 18.8649 15.7338C17.1771 14.3836 14.8879 13.625 12.501 13.625C10.114 13.625 7.82484 14.3836 6.13702 15.7338C4.44919 17.0841 3.50098 18.9154 3.50098 20.825" fill="#323233"/>
<path fill-rule="evenodd" clip-rule="evenodd" d="M18.8649 15.7338C20.5528 17.0841 21.501 18.9154 21.501 20.825C21.501 21.3024 21.2639 21.7602 20.842 22.0978C20.42 22.4354 19.8477 22.625 19.251 22.625H5.75098C5.15424 22.625 4.58194 22.4354 4.15999 22.0978C3.73803 21.7602 3.50098 21.3024 3.50098 20.825C3.50098 18.9154 4.44919 17.0841 6.13702 15.7338C7.82484 14.3836 10.114 13.625 12.501 13.625C14.8879 13.625 17.1771 14.3836 18.8649 15.7338Z" fill="#323233"/>
<path d="M12.501 13.625C15.6076 13.625 18.126 11.1066 18.126 8C18.126 4.8934 15.6076 2.375 12.501 2.375C9.39437 2.375 6.87598 4.8934 6.87598 8C6.87598 11.1066 9.39437 13.625 12.501 13.625Z" fill="#323233"/>
<path d="M12.501 13.625C14.8879 13.625 17.1771 14.3836 18.8649 15.7338C20.5528 17.0841 21.501 18.9154 21.501 20.825C21.501 21.3024 21.2639 21.7602 20.842 22.0978C20.42 22.4354 19.8477 22.625 19.251 22.625H5.75098C5.15424 22.625 4.58194 22.4354 4.15999 22.0978C3.73803 21.7602 3.50098 21.3024 3.50098 20.825C3.50098 18.9154 4.44919 17.0841 6.13702 15.7338C7.82484 14.3836 10.114 13.625 12.501 13.625ZM12.501 13.625C15.6076 13.625 18.126 11.1066 18.126 8C18.126 4.8934 15.6076 2.375 12.501 2.375C9.39437 2.375 6.87598 4.8934 6.87598 8C6.87598 11.1066 9.39437 13.625 12.501 13.625Z" stroke="#323233" stroke-width="1.5" stroke-linecap="round" stroke-linejoin="round"/>
</svg>
