<svg width="26" height="26" viewBox="0 0 26 26" fill="none" xmlns="http://www.w3.org/2000/svg">
<path d="M12.5 13.625C14.8869 13.625 17.1761 14.3836 18.864 15.7338C20.5518 17.0841 21.5 18.9154 21.5 20.825C21.5 21.3024 21.2629 21.7602 20.841 22.0978C20.419 22.4354 19.8467 22.625 19.25 22.625H5.75C5.15326 22.625 4.58097 22.4354 4.15901 22.0978C3.73705 21.7602 3.5 21.3024 3.5 20.825C3.5 18.9154 4.44821 17.0841 6.13604 15.7338C7.82387 14.3836 10.1131 13.625 12.5 13.625ZM12.5 13.625C15.6066 13.625 18.125 11.1066 18.125 8C18.125 4.8934 15.6066 2.375 12.5 2.375C9.3934 2.375 6.875 4.8934 6.875 8C6.875 11.1066 9.3934 13.625 12.5 13.625Z" stroke="#8A8A8B" stroke-width="1.44643" stroke-linecap="round" stroke-linejoin="round"/>
</svg>
