<svg width="26" height="26" viewBox="0 0 26 26" fill="none" xmlns="http://www.w3.org/2000/svg">
<path d="M11.9167 5.41797C15.2115 5.50284 18.4317 4.42943 21.0167 2.38464C21.1776 2.26392 21.369 2.19041 21.5694 2.17235C21.7698 2.15428 21.9712 2.19237 22.1511 2.28234C22.3311 2.37231 22.4824 2.51062 22.5882 2.68176C22.694 2.8529 22.75 3.05011 22.75 3.2513V16.2513C22.75 16.4525 22.694 16.6497 22.5882 16.8208C22.4824 16.992 22.3311 17.1303 22.1511 17.2203C21.9712 17.3102 21.7698 17.3483 21.5694 17.3303C21.369 17.3122 21.1776 17.2387 21.0167 17.118C18.4317 15.0732 15.2115 13.9998 11.9167 14.0846H5.41667C4.84203 14.0846 4.29093 13.8564 3.8846 13.45C3.47827 13.0437 3.25 12.4926 3.25 11.918V7.58464C3.25 7.01 3.47827 6.4589 3.8846 6.05257C4.29093 5.64624 4.84203 5.41797 5.41667 5.41797H11.9167Z" fill="#323233" stroke="#323233" stroke-width="1.5" stroke-linecap="round" stroke-linejoin="round"/>
<path d="M6.5 14.082C6.5 16.8948 7.41231 19.6318 9.1 21.882C9.44478 22.3417 9.95806 22.6457 10.5269 22.7269C11.0958 22.8082 11.6736 22.6601 12.1333 22.3154C12.593 21.9706 12.897 21.4573 12.9782 20.8884C13.0595 20.3196 12.9114 19.7417 12.5667 19.282C11.4415 17.7819 10.8333 15.9572 10.8333 14.082" fill="#323233"/>
<path d="M6.5 14.082C6.5 16.8948 7.41231 19.6318 9.1 21.882C9.44478 22.3417 9.95806 22.6457 10.5269 22.7269C11.0958 22.8082 11.6736 22.6601 12.1333 22.3154C12.593 21.9706 12.897 21.4573 12.9782 20.8884C13.0595 20.3196 12.9114 19.7417 12.5667 19.282C11.4415 17.7819 10.8333 15.9572 10.8333 14.082" stroke="#323233" stroke-width="1.5" stroke-linecap="round" stroke-linejoin="round"/>
</svg>
