<svg width="24" height="24" viewBox="0 0 24 24" fill="none" xmlns="http://www.w3.org/2000/svg">
<path d="M2.5 9.31965C2.50002 8.27329 2.82071 7.25154 3.41972 6.38936C4.01873 5.52718 4.86788 4.86513 5.85502 4.49065C6.84215 4.11616 7.92083 4.04687 8.94859 4.29191C9.97635 4.53695 10.9048 5.0848 11.6114 5.86311C11.6612 5.91578 11.7214 5.95777 11.7882 5.98648C11.855 6.01518 11.9271 6.03 12 6.03C12.0728 6.03 12.1449 6.01518 12.2117 5.98648C12.2786 5.95777 12.3388 5.91578 12.3885 5.86311C13.0929 5.07975 14.0216 4.52729 15.051 4.27927C16.0804 4.03125 17.1618 4.09943 18.1511 4.47474C19.1404 4.85005 19.9908 5.51468 20.589 6.38018C21.1872 7.24568 21.505 8.27099 21.4999 9.31965C21.4999 11.4729 20.0749 13.0809 18.65 14.4913L13.4326 19.4871C13.2556 19.6884 13.0373 19.85 12.7923 19.9613C12.5473 20.0726 12.2812 20.1311 12.0116 20.1328C11.7421 20.1345 11.4752 20.0794 11.2288 19.9711C10.9825 19.8629 10.7622 19.704 10.5826 19.505L5.34999 14.4913C3.925 13.0809 2.5 11.4823 2.5 9.31965Z" fill="#FF4545" stroke="#FF4545" stroke-width="1.5" stroke-linecap="round" stroke-linejoin="round"/>
</svg>
