<svg width="24" height="24" viewBox="0 0 24 24" fill="none" xmlns="http://www.w3.org/2000/svg">
<path d="M2.50006 9.18684C2.50008 8.14048 2.82077 7.11873 3.41978 6.25655C4.01879 5.39437 4.86794 4.73232 5.85508 4.35783C6.84221 3.98335 7.92089 3.91405 8.94865 4.1591C9.97641 4.40414 10.9049 4.95199 11.6115 5.7303C11.6612 5.78297 11.7214 5.82496 11.7883 5.85366C11.8551 5.88237 11.9272 5.89719 12 5.89719C12.0729 5.89719 12.145 5.88237 12.2118 5.85366C12.2786 5.82496 12.3388 5.78297 12.3886 5.7303C13.0929 4.94693 14.0216 4.39448 15.0511 4.14646C16.0805 3.89844 17.1618 3.96662 18.1511 4.34193C19.1405 4.71724 19.9908 5.38187 20.5891 6.24737C21.1873 7.11287 21.505 8.13818 21.5 9.18684C21.5 11.3401 20.075 12.948 18.65 14.3585L13.4326 19.3543C13.2556 19.5555 13.0374 19.7172 12.7924 19.8285C12.5474 19.9398 12.2813 19.9983 12.0117 20C11.7421 20.0017 11.4753 19.9465 11.2289 19.8383C10.9825 19.7301 10.7622 19.5712 10.5826 19.3722L5.35005 14.3585C3.92505 12.948 2.50006 11.3495 2.50006 9.18684Z" stroke="#3F4044" stroke-width="1.5" stroke-linecap="round" stroke-linejoin="round"/>
</svg>
