<svg width="24" height="24" viewBox="0 0 24 24" fill="none" xmlns="http://www.w3.org/2000/svg">
<path d="M4 10.1581C3.99994 9.89784 4.0563 9.64066 4.16514 9.40454C4.27399 9.16842 4.43271 8.95904 4.63022 8.79102L10.8524 3.42273C11.1733 3.14976 11.5799 3 12 3C12.4201 3 12.8267 3.14976 13.1476 3.42273L19.3698 8.79102C19.5673 8.95904 19.726 9.16842 19.8349 9.40454C19.9437 9.64066 20.0001 9.89784 20 10.1581V18.2106C20 18.6852 19.8127 19.1403 19.4793 19.4759C19.1459 19.8115 18.6937 20 18.2222 20H5.77778C5.30628 20 4.8541 19.8115 4.5207 19.4759C4.1873 19.1403 4 18.6852 4 18.2106V10.1581Z" fill="#323233" stroke="#323233" stroke-width="1.25" stroke-linecap="round" stroke-linejoin="round"/>
</svg>
