<svg width="24" height="24" viewBox="0 0 24 24" fill="none" xmlns="http://www.w3.org/2000/svg">
<path d="M7.625 8.44444C7.625 10.899 9.58375 12.8889 12 12.8889C10.1435 12.8889 8.36301 13.6381 7.05025 14.9717C6.44359 15.588 5.95979 16.3057 5.61484 17.0857C4.94471 18.601 6.34315 20 8 20H12H16C17.6569 20 19.0553 18.601 18.3852 17.0857C18.0402 16.3057 17.5564 15.588 16.9497 14.9717C15.637 13.6381 13.8565 12.8889 12 12.8889C14.4162 12.8889 16.375 10.899 16.375 8.44444C16.375 5.98985 14.4162 4 12 4C9.58375 4 7.625 5.98985 7.625 8.44444Z" fill="#323233"/>
<path d="M12 12.8889C9.58375 12.8889 7.625 10.899 7.625 8.44444C7.625 5.98985 9.58375 4 12 4C14.4162 4 16.375 5.98985 16.375 8.44444C16.375 10.899 14.4162 12.8889 12 12.8889ZM12 12.8889C10.1435 12.8889 8.36301 13.6381 7.05025 14.9717C6.44359 15.588 5.95979 16.3057 5.61484 17.0857C4.94471 18.601 6.34315 20 8 20H12H16C17.6569 20 19.0553 18.601 18.3852 17.0857C18.0402 16.3057 17.5564 15.588 16.9497 14.9717C15.637 13.6381 13.8565 12.8889 12 12.8889Z" stroke="#323233" stroke-width="1.25" stroke-linecap="round" stroke-linejoin="round"/>
</svg>
