<svg width="24" height="24" viewBox="0 0 24 24" fill="none" xmlns="http://www.w3.org/2000/svg">
<path d="M11.1111 5.78571C13.8146 5.85846 16.4568 4.9384 18.5778 3.18571C18.7098 3.08225 18.8669 3.01924 19.0313 3.00375C19.1957 2.98827 19.361 3.02091 19.5086 3.09803C19.6563 3.17515 19.7805 3.2937 19.8672 3.44039C19.954 3.58708 20 3.75612 20 3.92857V15.0714C20 15.2439 19.954 15.4129 19.8672 15.5596C19.7805 15.7063 19.6563 15.8248 19.5086 15.902C19.361 15.9791 19.1957 16.0117 19.0313 15.9962C18.8669 15.9808 18.7098 15.9178 18.5778 15.8143C16.4568 14.0616 13.8146 13.1415 11.1111 13.2143H5.77778C5.30628 13.2143 4.8541 13.0186 4.5207 12.6703C4.1873 12.3221 4 11.8497 4 11.3571V7.64286C4 7.15031 4.1873 6.67794 4.5207 6.32966C4.8541 5.98138 5.30628 5.78571 5.77778 5.78571H11.1111Z" fill="#323233" stroke="#323233" stroke-width="1.25" stroke-linecap="round" stroke-linejoin="round"/>
<path d="M7 13C7 15.2719 7.70178 17.4825 9 19.3C9.26521 19.6713 9.66004 19.9168 10.0976 19.9824C10.5352 20.048 10.9797 19.9285 11.3333 19.65C11.6869 19.3715 11.9207 18.9569 11.9832 18.4975C12.0458 18.038 11.9319 17.5713 11.6667 17.2C10.8012 15.9883 10.3333 14.5146 10.3333 13" fill="#323233"/>
<path d="M7 13C7 15.2719 7.70178 17.4825 9 19.3C9.26521 19.6713 9.66004 19.9168 10.0976 19.9824C10.5352 20.048 10.9797 19.9285 11.3333 19.65C11.6869 19.3715 11.9207 18.9569 11.9832 18.4975C12.0458 18.038 11.9319 17.5713 11.6667 17.2C10.8012 15.9883 10.3333 14.5146 10.3333 13" stroke="#323233" stroke-width="1.25" stroke-linecap="round" stroke-linejoin="round"/>
</svg>
