<svg width="24" height="24" viewBox="0 0 24 24" fill="none" xmlns="http://www.w3.org/2000/svg">
<path d="M12 13C14.7614 13 17 10.7614 17 8C17 5.23858 14.7614 3 12 3C9.23858 3 7 5.23858 7 8C7 10.7614 9.23858 13 12 13Z" fill="#323233" stroke="#323233" stroke-width="1.5" stroke-linecap="round" stroke-linejoin="round"/>
<path d="M17.6569 15.3431C18.441 16.1273 19.0456 17.0575 19.4441 18.0698C20.051 19.6115 18.6569 21 17 21H7C5.34315 21 3.94908 19.6115 4.55596 18.0698C4.95444 17.0575 5.559 16.1273 6.34315 15.3431C7.84344 13.8429 9.87831 13 12 13C14.1218 13 16.1566 13.8429 17.6569 15.3431Z" fill="#323233" stroke="#323233" stroke-width="1.5" stroke-linecap="round" stroke-linejoin="round"/>
<path d="M6 2.5C6 4 6.81895 5.17774 7.5 5.5L8.5 4C7.30709 3.58995 7 3.5 6 2.5Z" fill="#323233" stroke="#323233" stroke-width="1.5" stroke-linecap="round" stroke-linejoin="round"/>
<path d="M18.1226 2.5C18.1226 4 17.3036 5.17774 16.6226 5.5L15.6226 4C16.8155 3.58995 17.1226 3.5 18.1226 2.5Z" fill="#323233" stroke="#323233" stroke-width="1.5" stroke-linecap="round" stroke-linejoin="round"/>
</svg>
