<svg width="24" height="24" viewBox="0 0 24 24" fill="none" xmlns="http://www.w3.org/2000/svg">
<path d="M11.9122 4.50586H6.01652C5.56977 4.50586 5.14131 4.68333 4.82541 4.99923C4.5095 5.31514 4.33203 5.74359 4.33203 6.19035V17.9818C4.33203 18.4285 4.5095 18.857 4.82541 19.1729C5.14131 19.4888 5.56977 19.6663 6.01652 19.6663H17.8079C18.2547 19.6663 18.6832 19.4888 18.9991 19.1729C19.315 18.857 19.4924 18.4285 19.4924 17.9818V12.0861" stroke="#121213" stroke-width="1.33332" stroke-linecap="round" stroke-linejoin="round"/>
<path d="M17.2822 4.19127C17.6173 3.85621 18.0717 3.66797 18.5456 3.66797C19.0194 3.66797 19.4739 3.85621 19.8089 4.19127C20.144 4.52634 20.3322 4.98079 20.3322 5.45464C20.3322 5.92849 20.144 6.38294 19.8089 6.71801L12.2178 14.31C12.0178 14.5098 11.7707 14.6561 11.4993 14.7353L9.07956 15.4428C9.00709 15.464 8.93027 15.4652 8.85713 15.4465C8.784 15.4278 8.71725 15.3897 8.66387 15.3363C8.61049 15.2829 8.57244 15.2162 8.5537 15.1431C8.53497 15.0699 8.53623 14.9931 8.55737 14.9206L9.26486 12.5009C9.34447 12.2297 9.49103 11.9829 9.69103 11.7833L17.2822 4.19127Z" stroke="#121213" stroke-width="1.33332" stroke-linecap="round" stroke-linejoin="round"/>
</svg>
