<svg width="20" height="20" viewBox="0 0 20 20" fill="none" xmlns="http://www.w3.org/2000/svg">
<path d="M16.0005 8.5C16.0005 12.2447 11.8462 16.1447 10.4512 17.3492C10.3213 17.447 10.1631 17.4998 10.0005 17.4998C9.83789 17.4998 9.6797 17.447 9.54974 17.3492C8.15474 16.1447 4.00049 12.2447 4.00049 8.5C4.00049 6.9087 4.63263 5.38258 5.75785 4.25736C6.88307 3.13214 8.40919 2.5 10.0005 2.5C11.5918 2.5 13.1179 3.13214 14.2431 4.25736C15.3683 5.38258 16.0005 6.9087 16.0005 8.5Z" fill="#E2E2E3" stroke="#E2E2E3" stroke-width="1.4" stroke-linecap="round" stroke-linejoin="round"/>
<path d="M10.0004 10.7001C11.1602 10.7001 12.1004 9.75984 12.1004 8.60003C12.1004 7.44021 11.1602 6.5 10.0004 6.5C8.8406 6.5 7.90039 7.44021 7.90039 8.60003C7.90039 9.75984 8.8406 10.7001 10.0004 10.7001Z" fill="white" stroke="#E2E2E3" stroke-width="1.40002" stroke-linecap="round" stroke-linejoin="round"/>
</svg>
