<svg width="24" height="24" viewBox="0 0 24 24" fill="none" xmlns="http://www.w3.org/2000/svg">
<path d="M7.5 15.6V10.5C7.5 9.37283 7.97411 8.29183 8.81802 7.4948C9.66193 6.69777 10.8065 6.25 12 6.25C13.1935 6.25 14.3381 6.69777 15.182 7.4948C16.0259 8.29183 16.5 9.37283 16.5 10.5V15.6M7.5 15.6H16.5M7.5 15.6C7.02261 15.6 6.56477 15.7791 6.22721 16.0979C5.88964 16.4167 5.7 16.8491 5.7 17.3V18.15C5.7 18.3754 5.79482 18.5916 5.9636 18.751C6.13239 18.9104 6.36131 19 6.6 19H17.4C17.6387 19 17.8676 18.9104 18.0364 18.751C18.2052 18.5916 18.3 18.3754 18.3 18.15V17.3C18.3 16.8491 18.1104 16.4167 17.7728 16.0979C17.4352 15.7791 16.9774 15.6 16.5 15.6M20.1 10.5H21M17.85 4.125L17.4 4.55M3 10.5H3.9M12 2V2.85M5.6361 4.48965L6.2724 5.0906M12 10.5V15.6" stroke="#323233" stroke-width="1.5" stroke-linecap="round" stroke-linejoin="round"/>
</svg>
