<svg width="20" height="20" viewBox="0 0 20 20" fill="none" xmlns="http://www.w3.org/2000/svg">
<path d="M9.27778 5.06901C11.4743 5.12559 13.6212 4.40999 15.3444 3.04679C15.4517 2.96631 15.5793 2.91731 15.7129 2.90526C15.8465 2.89322 15.9808 2.91861 16.1008 2.97859C16.2207 3.03857 16.3216 3.13078 16.3921 3.24487C16.4627 3.35897 16.5 3.49044 16.5 3.62457V12.2912C16.5 12.4254 16.4627 12.5568 16.3921 12.6709C16.3216 12.785 16.2207 12.8772 16.1008 12.9372C15.9808 12.9972 15.8465 13.0226 15.7129 13.0105C15.5793 12.9985 15.4517 12.9495 15.3444 12.869C13.6212 11.5058 11.4743 10.7902 9.27778 10.8468H4.94444C4.56135 10.8468 4.19395 10.6946 3.92307 10.4237C3.65218 10.1528 3.5 9.78543 3.5 9.40234V6.51346C3.5 6.13036 3.65218 5.76296 3.92307 5.49208C4.19395 5.22119 4.56135 5.06901 4.94444 5.06901H9.27778Z" fill="#FA9A97"/>
<path d="M5.9375 10.8008C5.9375 12.6467 6.50769 14.4428 7.5625 15.9195C7.77799 16.2212 8.09878 16.4207 8.45432 16.474C8.80986 16.5273 9.17101 16.4302 9.45833 16.2039C9.74565 15.9776 9.93559 15.6408 9.98638 15.2675C10.0372 14.8942 9.94465 14.515 9.72916 14.2133C9.02596 13.2288 8.64583 12.0314 8.64583 10.8008" fill="#FA9A97"/>
</svg>
