<svg width="24" height="24" viewBox="0 0 24 24" fill="none" xmlns="http://www.w3.org/2000/svg">
<path d="M3.89252 15.9075C4.02486 16.2413 4.05432 16.6071 3.97712 16.9578L3.01862 19.9188C2.98774 20.069 2.99572 20.2245 3.04182 20.3707C3.08792 20.5169 3.1706 20.649 3.28202 20.7542C3.39345 20.8595 3.52992 20.9346 3.6785 20.9724C3.82708 21.0101 3.98285 21.0093 4.13102 20.97L7.20272 20.0718C7.53366 20.0062 7.87639 20.0349 8.19182 20.1546C10.1137 21.0521 12.2907 21.242 14.3389 20.6907C16.3871 20.1395 18.1748 18.8826 19.3866 17.1417C20.5984 15.4009 21.1564 13.288 20.9622 11.1758C20.7679 9.06364 19.8339 7.08794 18.325 5.5973C16.816 4.10665 14.829 3.19686 12.7147 3.02843C10.6003 2.86 8.49434 3.44377 6.76842 4.67673C5.04249 5.90969 3.8075 7.71261 3.28133 9.76739C2.75515 11.8222 2.97161 13.9968 3.89252 15.9075Z" fill="#323233" stroke="#323233" stroke-width="1.5" stroke-linecap="round" stroke-linejoin="round"/>
<path d="M8.3999 12H8.4089" stroke="white" stroke-width="1.8" stroke-linecap="round" stroke-linejoin="round"/>
<path d="M12 12H12.009" stroke="white" stroke-width="1.8" stroke-linecap="round" stroke-linejoin="round"/>
<path d="M15.6001 12H15.6091" stroke="white" stroke-width="1.8" stroke-linecap="round" stroke-linejoin="round"/>
</svg>
