<svg width="24" height="24" viewBox="0 0 24 24" fill="none" xmlns="http://www.w3.org/2000/svg">
<path d="M7.23541 15.9V10.5C7.23541 9.30653 7.7374 8.16193 8.63096 7.31802C9.52451 6.47411 10.7364 6 12.0001 6C13.2638 6 14.4757 6.47411 15.3693 7.31802C16.2628 8.16193 16.7648 9.30653 16.7648 10.5V15.9M7.23541 15.9H16.7648M7.23541 15.9C6.72994 15.9 6.24517 16.0896 5.88775 16.4272C5.53032 16.7648 5.32953 17.2226 5.32953 17.7V18.6C5.32953 18.8387 5.42993 19.0676 5.60864 19.2364C5.78735 19.4052 6.02973 19.5 6.28247 19.5H17.7178C17.9705 19.5 18.2129 19.4052 18.3916 19.2364C18.5703 19.0676 18.6707 18.8387 18.6707 18.6V17.7C18.6707 17.2226 18.4699 16.7648 18.1125 16.4272C17.7551 16.0896 17.2703 15.9 16.7648 15.9M20.5766 10.5H21.5295M18.1942 3.75L17.7178 4.2M2.4707 10.5H3.42364M12.0001 1.5V2.4M5.26187 4.1361L5.9356 4.7724M12.0001 10.5V15.9" stroke="#FF2115" stroke-width="1.5" stroke-linecap="round" stroke-linejoin="round"/>
</svg>
